<svg xmlns="http://www.w3.org/2000/svg" viewBox="0 0 300.85 300.85"><defs><style>.cls-1{fill:#216cf3;}.cls-2{fill:#6ec4ff;}</style></defs><title>Asset 1</title><g id="Layer_2" data-name="Layer 2"><g id="Capa_1" data-name="Capa 1"><path class="cls-1" d="M179.92,102.14C171.23,90.91,162.25,79.31,155,66.85a5.47,5.47,0,0,0-9.14,0c-7.26,12.46-16.24,24.06-24.93,35.29-17.62,22.77-34.26,44.28-34.26,69.72,0,35.63,28.59,64.6,63.75,64.6s63.76-29,63.76-64.6C214.18,146.42,197.54,124.91,179.92,102.14Z"/><path class="cls-1" d="M256.79,44.06A150.42,150.42,0,1,0,44.06,256.79,150.42,150.42,0,1,0,256.79,44.06ZM150.42,271.15A120.73,120.73,0,1,1,271.15,150.42,120.87,120.87,0,0,1,150.42,271.15Z"/><path class="cls-2" d="M124.39,219.09a3.61,3.61,0,0,1-2-.59,52,52,0,0,1-16.87-17.62c-14.25-25.06-5.34-62.18,22.69-94.58a3.6,3.6,0,1,1,5.45,4.72c-12.76,14.74-21.55,30.78-25.42,46.39-3.81,15.33-2.59,29.13,3.54,39.91a44.85,44.85,0,0,0,14.59,15.16,3.6,3.6,0,0,1-2,6.61Z"/></g></g></svg>