<svg xmlns="http://www.w3.org/2000/svg" viewBox="0 0 123 123.02"><defs><style>.cls-1{fill:#ffda00;}.cls-2{fill:#fff;}</style></defs><title>edu</title><g id="Layer_2" data-name="Layer 2"><g id="Layer_1-2" data-name="Layer 1"><path class="cls-1" d="M105,18A61.52,61.52,0,0,0,0,60.13,61.57,61.57,0,0,0,61.49,123l1.39,0A61.48,61.48,0,0,0,105,18ZM96.12,96.13a48.53,48.53,0,0,1-36.24,14.34A49.06,49.06,0,0,1,12.55,63.14,49,49,0,0,1,61.48,12.53c.55,0,1.1,0,1.65,0a49.07,49.07,0,0,1,47.33,47.33A48.55,48.55,0,0,1,96.12,96.13Z"/><path class="cls-2" d="M96.12,96.13a48.53,48.53,0,0,1-36.24,14.34A49.06,49.06,0,0,1,12.55,63.14,49,49,0,0,1,61.48,12.53c.55,0,1.1,0,1.65,0a49.07,49.07,0,0,1,47.33,47.33A48.55,48.55,0,0,1,96.12,96.13Z"/><path class="cls-1" d="M91.57,50.51l-31.21-11a2,2,0,0,0-1.29,0l-31.22,11a1.94,1.94,0,0,0,0,3.66l31.21,11.1a2,2,0,0,0,1.3,0l31.22-11.1a2,2,0,0,0,1.29-1.83A1.93,1.93,0,0,0,91.57,50.51Z"/><path class="cls-1" d="M88.2,76.44V59.49l-3.88,1.38V76.44a3.9,3.9,0,0,0,0,6.77v9.54a1.94,1.94,0,1,0,3.88,0V83.21a3.9,3.9,0,0,0,0-6.77Z"/><path class="cls-1" d="M59.71,69.27a5.93,5.93,0,0,1-2-.34L40.21,62.69v8.55c0,2.09,2.18,3.86,6.49,5.26a43.65,43.65,0,0,0,13,1.88,43.72,43.72,0,0,0,13-1.88c4.3-1.4,6.48-3.17,6.48-5.26V62.69L61.67,68.93A5.94,5.94,0,0,1,59.71,69.27Z"/></g></g></svg>