<svg xmlns="http://www.w3.org/2000/svg" viewBox="0 0 123 123.02"><defs><style>.cls-1{fill:#003884;}.cls-2{fill:#fff;}</style></defs><title>police</title><g id="Layer_2" data-name="Layer 2"><g id="Layer_1-2" data-name="Layer 1"><path class="cls-1" d="M105,18A61.52,61.52,0,0,0,0,60.13,61.57,61.57,0,0,0,61.49,123l1.39,0A61.48,61.48,0,0,0,105,18ZM96.12,96.13a48.53,48.53,0,0,1-36.24,14.34A49.06,49.06,0,0,1,12.55,63.14,49,49,0,0,1,61.48,12.53c.55,0,1.1,0,1.65,0a49.07,49.07,0,0,1,47.33,47.33A48.55,48.55,0,0,1,96.12,96.13Z"/><path class="cls-2" d="M96.12,96.13a48.53,48.53,0,0,1-36.24,14.34A49.06,49.06,0,0,1,12.55,63.14,49,49,0,0,1,61.48,12.53c.55,0,1.1,0,1.65,0a49.07,49.07,0,0,1,47.33,47.33A48.55,48.55,0,0,1,96.12,96.13Z"/><path class="cls-1" d="M85.15,40.68l-8.83-8.84a1.81,1.81,0,0,0-1.25-.52H47.93a1.81,1.81,0,0,0-1.25.52l-8.83,8.84a1.73,1.73,0,0,0-.52,1.25V66.6A18.27,18.27,0,0,0,45.79,82l14.76,9.4a1.81,1.81,0,0,0,1.9,0L77.21,82A18.27,18.27,0,0,0,85.67,66.6V41.93A1.73,1.73,0,0,0,85.15,40.68Zm-10.56,16L69.72,62l.82,7.14a1.77,1.77,0,0,1-.71,1.64,1.8,1.8,0,0,1-1.78.18L61.5,68,55,71a1.8,1.8,0,0,1-1.78-.18,1.77,1.77,0,0,1-.71-1.64L53.28,62l-4.87-5.3A1.76,1.76,0,0,1,48,55a1.74,1.74,0,0,1,1.33-1.19l7.06-1.43L60,46.1a1.77,1.77,0,0,1,3.08,0l3.54,6.26,7.06,1.43a1.77,1.77,0,0,1,1,2.93Z"/></g></g></svg>