<svg xmlns="http://www.w3.org/2000/svg" viewBox="0 0 123.01 123.02"><defs><style>.cls-1{fill:#007ffc;}.cls-2{fill:#fff;}</style></defs><title>wtr</title><g id="Layer_2" data-name="Layer 2"><g id="Layer_1-2" data-name="Layer 1"><path class="cls-1" d="M105,18A61.53,61.53,0,0,0,0,60.13,61.58,61.58,0,0,0,61.49,123l1.4,0A61.48,61.48,0,0,0,105,18ZM96.13,96.13a48.49,48.49,0,0,1-36.24,14.34A49.07,49.07,0,0,1,12.55,63.14,49,49,0,0,1,61.48,12.53l1.66,0a49.07,49.07,0,0,1,47.33,47.33A48.55,48.55,0,0,1,96.13,96.13Z"/><path class="cls-2" d="M110.47,59.88A49.07,49.07,0,0,0,63.14,12.55l-1.66,0A49,49,0,0,0,12.55,63.14a49.07,49.07,0,0,0,47.34,47.33,49,49,0,0,0,50.58-50.59ZM41.69,39.58c1.67-1.67,8.45-2.43,8.45-2.43s-.77,6.8-2.43,8.45a4.26,4.26,0,0,1-6-6ZM76.13,74.64A18.94,18.94,0,0,1,38.64,69.2C40.15,58.79,62.3,38.05,62.3,38.05S77.63,64.33,76.13,74.64ZM87.75,52.45a8.74,8.74,0,0,1-12.37,0c-3.44-3.43-5-17.36-5-17.36s14,1.59,17.36,5A8.74,8.74,0,0,1,87.75,52.45Z"/><path class="cls-1" d="M62.3,38.05S40.15,58.79,38.64,69.2a18.94,18.94,0,0,0,37.49,5.44C77.63,64.33,62.3,38.05,62.3,38.05Zm-5,46.27a1.71,1.71,0,0,1-1.88,1.41A14,14,0,0,1,43.58,69.92a1.66,1.66,0,1,1,3.28.47,10.64,10.64,0,0,0,9,12A1.71,1.71,0,0,1,57.27,84.32Z"/><path class="cls-1" d="M87.75,40.08c-3.4-3.4-17.36-5-17.36-5s1.55,13.93,5,17.36A8.75,8.75,0,0,0,87.75,40.08ZM86.12,50.82a6.44,6.44,0,0,1-9.11,0,.76.76,0,0,1,1.08-1.08,4.92,4.92,0,0,0,7,0,.76.76,0,1,1,1.08,1.08Z"/><path class="cls-1" d="M41.69,39.58a4.26,4.26,0,0,0,6,6c1.66-1.65,2.43-8.45,2.43-8.45S43.36,37.91,41.69,39.58ZM43,44.28a.37.37,0,0,1-.53.53,3.15,3.15,0,0,1,0-4.44.37.37,0,0,1,.53.53A2.4,2.4,0,0,0,43,44.28Z"/></g></g></svg>